<?xml version="1.0" encoding="UTF-8" standalone="no"?>
<!-- Created with Inkscape (http://www.inkscape.org/) -->

<svg
   width="178.21822mm"
   height="178.21823mm"
   viewBox="0 0 178.21822 178.21823"
   version="1.1"
   id="svg1"
   inkscape:version="1.3.2 (091e20e, 2023-11-25, custom)"
   sodipodi:docname="Weather_Icons_Images.svg"
   inkscape:export-filename="pressure.svg"
   inkscape:export-xdpi="12.095238"
   inkscape:export-ydpi="12.095238"
   xmlns:inkscape="http://www.inkscape.org/namespaces/inkscape"
   xmlns:sodipodi="http://sodipodi.sourceforge.net/DTD/sodipodi-0.dtd"
   xmlns="http://www.w3.org/2000/svg"
   xmlns:svg="http://www.w3.org/2000/svg">
  <sodipodi:namedview
     id="namedview1"
     pagecolor="#ffffff"
     bordercolor="#000000"
     borderopacity="0.25"
     inkscape:showpageshadow="2"
     inkscape:pageopacity="0.0"
     inkscape:pagecheckerboard="0"
     inkscape:deskcolor="#d1d1d1"
     inkscape:document-units="mm"
     inkscape:zoom="0.81513047"
     inkscape:cx="270.50884"
     inkscape:cy="667.99122"
     inkscape:window-width="1920"
     inkscape:window-height="1171"
     inkscape:window-x="-9"
     inkscape:window-y="-9"
     inkscape:window-maximized="1"
     inkscape:current-layer="layer1" />
  <defs
     id="defs1">
    <inkscape:path-effect
       effect="bspline"
       id="path-effect3"
       is_visible="true"
       lpeversion="1.3"
       weight="33.333333"
       steps="2"
       helper_size="0"
       apply_no_weight="true"
       apply_with_weight="true"
       only_selected="false"
       uniform="false" />
    <inkscape:path-effect
       effect="bspline"
       id="path-effect2"
       is_visible="true"
       lpeversion="1.3"
       weight="33.333333"
       steps="2"
       helper_size="0"
       apply_no_weight="true"
       apply_with_weight="true"
       only_selected="false"
       uniform="false" />
    <inkscape:path-effect
       effect="bspline"
       id="path-effect2-2"
       is_visible="true"
       lpeversion="1.3"
       weight="33.333333"
       steps="2"
       helper_size="0"
       apply_no_weight="true"
       apply_with_weight="true"
       only_selected="false"
       uniform="false" />
  </defs>
  <g
     inkscape:groupmode="layer"
     id="layer4"
     inkscape:label="circle-bg"
     style="display:inline"
     transform="translate(-16.717888,-50.486662)">
    <circle
       style="display:inline;fill:none;fill-opacity:1;stroke:none;stroke-width:5.42236;stroke-dasharray:none;stroke-opacity:1;paint-order:stroke fill markers"
       id="path4-6"
       cx="105.827"
       cy="139.59578"
       r="89.109116"
       inkscape:export-filename="wind.svg"
       inkscape:export-xdpi="12.095238"
       inkscape:export-ydpi="12.095238" />
  </g>
  <g
     inkscape:label="humidity"
     inkscape:groupmode="layer"
     id="layer1"
     style="display:inline"
     transform="translate(-16.717888,-50.486662)">
    <path
       style="display:inline;fill:#769eda;fill-opacity:1;stroke:none;stroke-width:0.553;stroke-dasharray:none;stroke-opacity:1;paint-order:stroke fill markers"
       d="m 77.793443,137.73443 c 4.00328,-9.19672 16.662294,-15.68853 23.099997,-31.05271 6.43771,-15.364173 6.6541,-39.599755 6.65409,-39.599512 0,2.44e-4 -0.21639,24.235823 6.05915,39.491622 6.27554,15.2558 19.0425,21.53109 23.64082,30.24104 4.59833,8.70994 1.02791,19.85398 -4.86889,27.37369 -5.89681,7.51971 -14.1196,11.41472 -22.72133,11.90157 -8.60172,0.48686 -17.581869,-2.4344 -24.39831,-9.84599 -6.81644,-7.41159 -11.468806,-19.31299 -7.465527,-28.50971 z"
       id="path2-4"
       inkscape:path-effect="#path-effect2-2"
       inkscape:original-d="M 69.137704,135.02951 C 81.79672,128.5377 94.455736,122.0459 107.11475,115.5541 c 0.2164,-24.236553 0.43279,-48.472135 0.64918,-72.708198 -0.21639,24.23655 -0.43278,48.472129 -0.64918,72.708198 12.76747,6.27553 25.53443,12.55082 38.30164,18.82623 -3.57056,11.14448 -7.14098,22.28852 -10.71147,33.43278 -8.22312,3.89516 -16.44591,7.79017 -24.66886,11.68525 -8.9805,-2.92137 -17.960651,-5.84262 -26.94098,-8.76394 -4.652552,-11.90187 -9.304917,-23.80327 -13.957376,-35.70491 z"
       transform="matrix(1.4226291,0,0,1.4226291,-43.306396,-34.461176)"
       inkscape:export-filename="humidity.svg"
       inkscape:export-xdpi="12.095238"
       inkscape:export-ydpi="12.095238" />
    <path
       style="fill:#3771c8;fill-opacity:1;stroke:none;stroke-width:0.553;stroke-dasharray:none;stroke-opacity:1;paint-order:stroke fill markers"
       d="m 77.793443,137.73443 c 4.00328,-9.19672 16.662294,-15.68853 23.099997,-31.05271 6.43771,-15.364173 6.6541,-39.599755 6.65409,-39.599512 0,2.44e-4 -0.21639,24.235823 6.05915,39.491622 6.27554,15.2558 19.0425,21.53109 23.64082,30.24104 4.59833,8.70994 1.02791,19.85398 -4.86889,27.37369 -5.89681,7.51971 -14.1196,11.41472 -22.72133,11.90157 -8.60172,0.48686 -17.581869,-2.4344 -24.39831,-9.84599 -6.81644,-7.41159 -11.468806,-19.31299 -7.465527,-28.50971 z"
       id="path2"
       inkscape:path-effect="#path-effect2"
       inkscape:original-d="M 69.137704,135.02951 C 81.79672,128.5377 94.455736,122.0459 107.11475,115.5541 c 0.2164,-24.236553 0.43279,-48.472135 0.64918,-72.708198 -0.21639,24.23655 -0.43278,48.472129 -0.64918,72.708198 12.76747,6.27553 25.53443,12.55082 38.30164,18.82623 -3.57056,11.14448 -7.14098,22.28852 -10.71147,33.43278 -8.22312,3.89516 -16.44591,7.79017 -24.66886,11.68525 -8.9805,-2.92137 -17.960651,-5.84262 -26.94098,-8.76394 -4.652552,-11.90187 -9.304917,-23.80327 -13.957376,-35.70491 z"
       transform="matrix(1.4226291,0,0,1.4226291,-48.536738,-34.39717)" />
    <path
       style="fill:#ffffff;stroke:none;stroke-width:0.553;stroke-dasharray:none;stroke-opacity:1;paint-order:stroke fill markers"
       d="m 81.422186,149.53222 c 0.669434,3.09852 2.199565,7.91843 5.432021,12.12633 3.232456,4.20791 8.167035,7.80365 11.399454,9.58243 3.232419,1.77878 4.762519,1.74052 5.470209,1.05195 0.70769,-0.68858 0.59293,-2.02742 -1.79795,-4.20789 -2.39088,-2.18046 -7.05769,-5.20242 -10.25186,-9.06605 -3.194171,-3.86363 -4.915535,-8.56869 -6.426556,-11.26556 -1.511021,-2.69686 -2.811607,-3.38541 -3.557548,-3.04112 -0.745941,0.3443 -0.937204,1.72139 -0.26777,4.81991 z"
       id="path3"
       inkscape:path-effect="#path-effect3"
       inkscape:original-d="m 80.561486,147.81082 c 1.530133,4.81992 3.060266,9.63983 4.590399,14.45975 4.934775,3.59589 9.869355,7.19163 14.804033,10.78744 1.530162,-0.0383 3.060262,-0.0765 4.590402,-0.11476 -0.11477,-1.3389 -0.22952,-2.67774 -0.34428,-4.0166 -4.667003,-3.02207 -9.333814,-6.04402 -14.000717,-9.06604 -1.721435,-4.70525 -3.442801,-9.41031 -5.164198,-14.11547 -1.300639,-0.68858 -2.601228,-1.37712 -3.90184,-2.06568 -0.19127,1.37715 -0.382532,2.75424 -0.573799,4.13136 z"
       transform="matrix(1.4226291,0,0,1.4226291,-48.536738,-34.39717)" />
  </g>
</svg>
