<?xml version="1.0" encoding="UTF-8" standalone="no"?>
<!-- Created with Inkscape (http://www.inkscape.org/) -->

<svg
   width="1366"
   height="768"
   viewBox="0 0 1366 768"
   version="1.1"
   id="svg1"
   inkscape:export-filename="snow-mountain.svg"
   inkscape:export-xdpi="96"
   inkscape:export-ydpi="96"
   xmlns:inkscape="http://www.inkscape.org/namespaces/inkscape"
   xmlns:sodipodi="http://sodipodi.sourceforge.net/DTD/sodipodi-0.dtd"
   xmlns="http://www.w3.org/2000/svg"
   xmlns:svg="http://www.w3.org/2000/svg">
  <sodipodi:namedview
     id="namedview1"
     pagecolor="#ffffff"
     bordercolor="#000000"
     borderopacity="0.25"
     inkscape:showpageshadow="2"
     inkscape:pageopacity="0.0"
     inkscape:pagecheckerboard="0"
     inkscape:deskcolor="#d1d1d1"
     inkscape:document-units="px" />
  <defs
     id="defs1">
    <inkscape:path-effect
       effect="powerstroke"
       id="path-effect45"
       is_visible="true"
       lpeversion="1.3"
       scale_width="1"
       interpolator_type="CubicBezierJohan"
       interpolator_beta="0.2"
       start_linecap_type="zerowidth"
       end_linecap_type="zerowidth"
       offset_points="3,18.867925"
       linejoin_type="extrp_arc"
       miter_limit="4"
       not_jump="false"
       sort_points="true"
       message="&lt;b&gt;Ctrl + click&lt;/b&gt; on existing node and move it" />
    <inkscape:path-effect
       effect="powerstroke"
       id="path-effect43"
       is_visible="true"
       lpeversion="1.3"
       scale_width="1"
       interpolator_type="CubicBezierJohan"
       interpolator_beta="0.2"
       start_linecap_type="zerowidth"
       end_linecap_type="zerowidth"
       offset_points="5,18.867925"
       linejoin_type="extrp_arc"
       miter_limit="4"
       not_jump="false"
       sort_points="true"
       message="&lt;b&gt;Ctrl + click&lt;/b&gt; on existing node and move it" />
    <inkscape:path-effect
       effect="powerstroke"
       id="path-effect41"
       is_visible="true"
       lpeversion="1.3"
       scale_width="1"
       interpolator_type="CubicBezierJohan"
       interpolator_beta="0.2"
       start_linecap_type="zerowidth"
       end_linecap_type="zerowidth"
       offset_points="6,18.867925"
       linejoin_type="extrp_arc"
       miter_limit="4"
       not_jump="false"
       sort_points="true"
       message="&lt;b&gt;Ctrl + click&lt;/b&gt; on existing node and move it" />
    <inkscape:path-effect
       effect="powerstroke"
       id="path-effect39"
       is_visible="true"
       lpeversion="1.3"
       scale_width="1"
       interpolator_type="CubicBezierJohan"
       interpolator_beta="0.2"
       start_linecap_type="zerowidth"
       end_linecap_type="zerowidth"
       offset_points="11,18.867925"
       linejoin_type="extrp_arc"
       miter_limit="4"
       not_jump="false"
       sort_points="true"
       message="&lt;b&gt;Ctrl + click&lt;/b&gt; on existing node and move it" />
    <inkscape:path-effect
       effect="powerstroke"
       id="path-effect37"
       is_visible="true"
       lpeversion="1.3"
       scale_width="1"
       interpolator_type="CubicBezierJohan"
       interpolator_beta="0.2"
       start_linecap_type="zerowidth"
       end_linecap_type="zerowidth"
       offset_points="10,18.867925"
       linejoin_type="extrp_arc"
       miter_limit="4"
       not_jump="false"
       sort_points="true"
       message="&lt;b&gt;Ctrl + click&lt;/b&gt; on existing node and move it" />
    <inkscape:path-effect
       effect="powerstroke"
       id="path-effect35"
       is_visible="true"
       lpeversion="1.3"
       scale_width="1"
       interpolator_type="CubicBezierJohan"
       interpolator_beta="0.2"
       start_linecap_type="zerowidth"
       end_linecap_type="zerowidth"
       offset_points="10,18.867925"
       linejoin_type="extrp_arc"
       miter_limit="4"
       not_jump="false"
       sort_points="true"
       message="&lt;b&gt;Ctrl + click&lt;/b&gt; on existing node and move it" />
    <inkscape:path-effect
       effect="powerstroke"
       id="path-effect27"
       is_visible="true"
       lpeversion="1.3"
       scale_width="1"
       interpolator_type="CubicBezierJohan"
       interpolator_beta="0.2"
       start_linecap_type="zerowidth"
       end_linecap_type="zerowidth"
       offset_points="3,18.867925"
       linejoin_type="extrp_arc"
       miter_limit="4"
       not_jump="false"
       sort_points="true"
       message="&lt;b&gt;Ctrl + click&lt;/b&gt; on existing node and move it" />
    <inkscape:path-effect
       effect="powerstroke"
       id="path-effect25"
       is_visible="true"
       lpeversion="1.3"
       scale_width="1"
       interpolator_type="CubicBezierJohan"
       interpolator_beta="0.2"
       start_linecap_type="zerowidth"
       end_linecap_type="zerowidth"
       offset_points="5,18.867925"
       linejoin_type="extrp_arc"
       miter_limit="4"
       not_jump="false"
       sort_points="true"
       message="&lt;b&gt;Ctrl + click&lt;/b&gt; on existing node and move it" />
    <inkscape:path-effect
       effect="powerstroke"
       id="path-effect23"
       is_visible="true"
       lpeversion="1.3"
       scale_width="1"
       interpolator_type="CubicBezierJohan"
       interpolator_beta="0.2"
       start_linecap_type="zerowidth"
       end_linecap_type="zerowidth"
       offset_points="3,18.867925"
       linejoin_type="extrp_arc"
       miter_limit="4"
       not_jump="false"
       sort_points="true"
       message="&lt;b&gt;Ctrl + click&lt;/b&gt; on existing node and move it" />
    <inkscape:path-effect
       effect="powerstroke"
       id="path-effect21"
       is_visible="true"
       lpeversion="1.3"
       scale_width="1"
       interpolator_type="CubicBezierJohan"
       interpolator_beta="0.2"
       start_linecap_type="zerowidth"
       end_linecap_type="zerowidth"
       offset_points="5,18.867925"
       linejoin_type="extrp_arc"
       miter_limit="4"
       not_jump="false"
       sort_points="true"
       message="&lt;b&gt;Ctrl + click&lt;/b&gt; on existing node and move it" />
    <inkscape:path-effect
       effect="powerstroke"
       id="path-effect19"
       is_visible="true"
       lpeversion="1.3"
       scale_width="1"
       interpolator_type="CubicBezierJohan"
       interpolator_beta="0.2"
       start_linecap_type="zerowidth"
       end_linecap_type="zerowidth"
       offset_points="4,18.867925"
       linejoin_type="extrp_arc"
       miter_limit="4"
       not_jump="false"
       sort_points="true"
       message="&lt;b&gt;Ctrl + click&lt;/b&gt; on existing node and move it" />
    <inkscape:path-effect
       effect="powerstroke"
       id="path-effect17"
       is_visible="true"
       lpeversion="1.3"
       scale_width="1"
       interpolator_type="CubicBezierJohan"
       interpolator_beta="0.2"
       start_linecap_type="zerowidth"
       end_linecap_type="zerowidth"
       offset_points="3,18.867925"
       linejoin_type="extrp_arc"
       miter_limit="4"
       not_jump="false"
       sort_points="true"
       message="&lt;b&gt;Ctrl + click&lt;/b&gt; on existing node and move it" />
    <inkscape:path-effect
       effect="powerstroke"
       id="path-effect11"
       is_visible="true"
       lpeversion="1.3"
       scale_width="1"
       interpolator_type="CubicBezierJohan"
       interpolator_beta="0.2"
       start_linecap_type="zerowidth"
       end_linecap_type="zerowidth"
       offset_points="3,18.867925"
       linejoin_type="extrp_arc"
       miter_limit="4"
       not_jump="false"
       sort_points="true"
       message="&lt;b&gt;Ctrl + click&lt;/b&gt; on existing node and move it" />
    <inkscape:path-effect
       effect="powerstroke"
       id="path-effect9"
       is_visible="true"
       lpeversion="1.3"
       scale_width="1"
       interpolator_type="CubicBezierJohan"
       interpolator_beta="0.2"
       start_linecap_type="zerowidth"
       end_linecap_type="zerowidth"
       offset_points="7,18.867925"
       linejoin_type="extrp_arc"
       miter_limit="4"
       not_jump="false"
       sort_points="true"
       message="&lt;b&gt;Ctrl + click&lt;/b&gt; on existing node and move it" />
    <inkscape:path-effect
       effect="fill_between_many"
       method="bsplinespiro"
       autoreverse="false"
       close="false"
       join="false"
       linkedpaths="#path9,0,1"
       id="path-effect10"
       is_visible="true"
       lpeversion="0" />
    <inkscape:path-effect
       effect="fill_between_many"
       method="bsplinespiro"
       autoreverse="false"
       close="false"
       join="false"
       linkedpaths="#path11,0,1"
       id="path-effect12"
       is_visible="true"
       lpeversion="0" />
    <inkscape:path-effect
       effect="fill_between_many"
       method="bsplinespiro"
       autoreverse="false"
       close="false"
       join="false"
       linkedpaths="#path17,0,1"
       id="path-effect18"
       is_visible="true"
       lpeversion="0" />
    <inkscape:path-effect
       effect="fill_between_many"
       method="bsplinespiro"
       autoreverse="false"
       close="false"
       join="false"
       linkedpaths="#path19,0,1"
       id="path-effect20"
       is_visible="true"
       lpeversion="0" />
    <inkscape:path-effect
       effect="fill_between_many"
       method="bsplinespiro"
       autoreverse="false"
       close="false"
       join="false"
       linkedpaths="#path21,0,1"
       id="path-effect22"
       is_visible="true"
       lpeversion="0" />
    <inkscape:path-effect
       effect="fill_between_many"
       method="bsplinespiro"
       autoreverse="false"
       close="false"
       join="false"
       linkedpaths="#path23,0,1"
       id="path-effect24"
       is_visible="true"
       lpeversion="0" />
    <inkscape:path-effect
       effect="fill_between_many"
       method="bsplinespiro"
       autoreverse="false"
       close="false"
       join="false"
       linkedpaths="#path25,0,1"
       id="path-effect26"
       is_visible="true"
       lpeversion="0" />
    <inkscape:path-effect
       effect="fill_between_many"
       method="bsplinespiro"
       autoreverse="false"
       close="false"
       join="false"
       linkedpaths="#path27,0,1"
       id="path-effect28"
       is_visible="true"
       lpeversion="0" />
    <inkscape:path-effect
       effect="fill_between_many"
       method="bsplinespiro"
       autoreverse="false"
       close="false"
       join="false"
       linkedpaths="#path35,0,1"
       id="path-effect36"
       is_visible="true"
       lpeversion="0" />
    <inkscape:path-effect
       effect="fill_between_many"
       method="bsplinespiro"
       autoreverse="false"
       close="false"
       join="false"
       linkedpaths="#path41,0,1"
       id="path-effect42"
       is_visible="true"
       lpeversion="0" />
  </defs>
  <g
     inkscape:groupmode="layer"
     id="layer4"
     inkscape:label="last-slide">
    <path
       inkscape:original-d="M 0,0"
       inkscape:path-effect="#path-effect36"
       d="M 144.72216,572.98162 500.62054,330.79351 572.98162,429.73622 1243.4292,163.92 l 209.6994,203.79243 62.0238,321.93298 -33.9654,124.04756 -1107.56754,76.79135 -481.4227,-73.83783 -70.88433,-245.14163 z"
       id="path36"
       style="fill:#00002b;fill-opacity:1" />
    <path
       style="opacity:1;fill:#00002b;fill-opacity:1;fill-rule:nonzero;stroke:none;stroke-width:6.44031;paint-order:stroke fill markers"
       d="M 146.53379,575.64383 C 226.76874,521.04412 350.41595,436.90245 499.8588,335.2069 c 21.4024,29.2645 45.31667,61.96361 70.52359,96.43021 a 3.2201996,3.2201543 61.096527 0 0 3.78607,1.09257 c 215.59302,-85.47741 441.39194,-175.0012 668.51074,-265.04829 68.6609,66.72682 139.2109,135.28952 207.479,201.63458 21.5517,111.86392 42.5088,220.64111 61.6903,320.20229 -10.1497,37.06859 -21.4432,78.3145 -33.1639,121.12032 -359.3681,24.9162 -733.19679,50.83498 -1104.93077,76.60854 -162.48639,-24.92122 -324.39984,-49.75457 -479.03517,-73.47165 -24.35858,-84.24009 -47.99792,-165.99279 -69.11735,-239.03084 134.91957,0.61607 246.547531,1.12579 319.10615,1.45711 z m -1.79693,-5.88233 c -73.32868,-0.33484 -186.560401,-0.85188 -323.40973,-1.47676 a 3.220155,3.220155 82.067023 0 0 -3.10813,4.11461 c 21.42127,74.08186 45.48277,157.29457 70.88431,245.14156 a 3.2202711,3.2201494 86.295629 0 0 2.60527,2.28852 c 155.249147,23.81121 317.86847,48.75282 481.4227,73.83783 a 3.2201407,3.220172 47.377065 0 0 0.71091,0.0295 C 745.69386,867.91505 1119.6461,841.98769 1481.4099,816.9054 a 3.2199435,3.2201855 5.6740393 0 0 2.8829,-2.36204 c 11.9365,-43.59388 23.4402,-85.60749 33.9654,-124.04754 a 3.220155,3.220155 47.237958 0 0 0.056,-1.4596 c -19.22,-99.7611 -40.2268,-208.79642 -62.0238,-321.93294 a 3.2199368,3.2203878 16.634974 0 0 -0.9177,-1.70011 c -68.494,-66.56453 -139.2956,-135.37175 -209.6995,-203.79246 a 3.2201553,3.2201544 56.27721 0 0 -3.431,-0.68417 C 1015.2835,250.91021 789.61742,340.38136 574.11038,425.82468 548.72153,391.10932 524.67353,358.22736 503.21975,328.89259 a 3.220155,3.220155 54.792586 0 0 -4.41084,-0.76129 C 348.21216,430.61207 223.60556,515.4066 142.91053,570.31941 Z"
       id="path35"
       inkscape:path-effect="#path-effect35"
       inkscape:original-d="M 144.72216,572.98162 500.62054,330.79351 572.98162,429.73622 1243.4292,163.92 l 209.6994,203.79243 62.0238,321.93298 -33.9654,124.04756 -1107.56754,76.79135 -481.4227,-73.83783 -70.88433,-245.14163 z"
       inkscape:linked-fill="path36" />
    <path
       inkscape:original-d="M 0,0"
       inkscape:path-effect="#path-effect42"
       d="m 666.0173,682.26162 299.78162,-344.08432 60.54698,-76.79135 -375.09617,153.5827 -85.65189,147.67567 -224.46703,327.84 z"
       id="path42"
       style="fill:#dbe2e3" />
    <path
       style="opacity:1;fill:#000039;fill-opacity:1;fill-rule:nonzero;stroke:none;stroke-width:6.44031;paint-order:stroke fill markers"
       d="M 668.44523,684.37694 C 729.1543,614.69608 839.04039,488.57066 968.22685,340.29262 a 3.2201816,3.2201266 84.659605 0 0 0.10076,-0.12155 c 18.90134,-23.97244 39.84829,-50.53936 60.54699,-76.79135 a 3.2201832,3.2201454 7.9936112 0 0 -3.7489,-4.97377 C 893.32456,312.37176 763.14863,365.67214 650.02956,411.98862 a 3.220155,3.220155 3.9100825 0 0 -1.56536,1.36442 C 622.65114,457.85831 592.94843,509.06988 562.87275,560.9245 486.15831,672.96795 408.52637,786.35144 338.47378,888.66509 a 3.220155,3.220155 0.87133492 0 0 4.39461,4.53035 C 482.87342,803.46495 601.9618,727.14013 667.75488,684.97274 Z m -4.16551,-4.82644 C 600.58936,720.37022 486.95589,793.19895 352.75166,879.21165 420.45231,780.33307 494.77563,671.78191 568.25487,564.46355 a 3.225864,3.2152 77.350884 0 0 0.12852,-0.20365 c 29.88281,-51.52209 59.39977,-102.4134 85.10157,-146.72683 108.86219,-44.5735 234.83265,-96.15197 362.75374,-148.52911 -13.1023,16.61757 -34.03101,43.16131 -52.91958,67.11756 C 834.15513,484.37379 724.29032,610.47477 663.58937,680.1463 Z"
       id="path41"
       inkscape:path-effect="#path-effect41"
       inkscape:original-d="m 666.0173,682.26162 299.78162,-344.08432 60.54698,-76.79135 -375.09617,153.5827 -85.65189,147.67567 -224.46703,327.84 z"
       inkscape:linked-fill="path42" />
    <path
       style="opacity:1;fill:#000039;fill-opacity:1;fill-rule:nonzero;stroke:none;stroke-width:6.44031;paint-order:stroke fill markers"
       d="m 1092.5376,310.28404 c 6.0266,117.3758 17.6749,344.23948 31.0119,603.99351 a 3.220155,3.220155 48.385302 0 0 6.3899,0.37799 c 35.9142,-209.88774 75.168,-439.29318 112.0495,-654.83445 49.5474,99.3463 97.2833,195.06035 141.0657,282.84744 45.0755,90.3799 94.3415,189.16191 145.4605,291.65946 a 3.220155,3.220155 21.198719 0 0 5.8774,-2.61838 C 1453.8458,627.43174 1367.8394,409.30701 1289.2508,209.99502 a 3.220155,3.220155 65.517126 0 0 -4.4799,-1.6765 c -81.9273,42.55139 -153.4809,79.71488 -190.5016,98.9427 z m 4.7001,2.69258 c 36.5425,-18.97944 106.7314,-55.43415 187.3319,-97.2964 68.5183,173.77241 144.2032,365.7201 216.7109,549.60995 -39.3085,-78.81647 -77.17,-154.73163 -112.4626,-225.496 -45.0755,-90.3799 -94.3415,-189.16191 -145.4605,-291.65946 a 3.220155,3.220155 36.732912 0 0 -6.0557,0.89407 c -35.6948,208.60565 -73.7011,430.72052 -108.8102,635.90325 -12.711,-247.56246 -23.7209,-461.99425 -29.5221,-574.97823 z"
       id="path43"
       inkscape:path-effect="#path-effect43"
       inkscape:original-d="m 1095.7535,310.11892 31.0119,603.99351 113.7103,-664.54054 290.9211,583.31892 -245.1417,-621.71459 z"
       inkscape:linked-fill="path44" />
    <path
       style="opacity:1;fill:#000039;fill-opacity:1;fill-rule:nonzero;stroke:none;stroke-width:6.44031;paint-order:stroke fill markers"
       d="M 333.32928,458.14422 C 252.87962,516.6765 60.053614,656.96978 -127.41882,793.368 a 3.220155,3.220155 14.254204 0 0 3.27846,5.51148 C -5.3117757,742.31915 112.0516,686.45623 214.03693,637.91299 316.02227,589.36975 433.38565,533.50684 552.21423,476.94651 a 3.220155,3.220155 34.036899 0 0 -1.18583,-6.12164 C 463.30091,465.41701 373.06822,459.85472 335.42191,457.53406 Z m 1.69637,5.81794 c 35.86897,2.2111 119.47611,7.36497 203.17021,12.52419 C 423.22206,531.21187 310.03438,585.08723 211.26902,632.09782 118.27598,676.36088 12.497179,726.70974 -95.519773,778.12392 82.82017,648.37018 260.68592,518.96145 337.11828,463.352 Z"
       id="path44"
       inkscape:path-effect="#path-effect45"
       inkscape:original-d="M 335.22378,460.74811 -125.52432,795.97189 550.83027,474.03892 Z"
       inkscape:linked-fill="path46" />
    <path
       style="opacity:1;fill:#dbe2e3;fill-opacity:1;fill-rule:nonzero;stroke:none;stroke-width:6.44031;paint-order:stroke fill markers"
       d="m 288.24175,465.48784 c 10.71469,16.07204 27.25997,40.88996 47.25622,70.88433 a 3.220155,3.220155 65.315204 0 0 3.5496,1.31411 c 25.25615,-7.08945 53.60298,-15.04646 83.52933,-23.44684 13.60972,1.8772 27.84534,3.84074 42.16149,5.81537 a 3.2201549,3.2201551 26.988305 0 0 2.67191,-0.86876 c 11.65781,-11.20943 23.37519,-22.47614 34.78574,-33.44782 6.15276,17.51168 12.07815,34.37628 17.53776,49.91516 a 3.220155,3.220155 52.762055 0 0 5.67351,0.78296 c 14.67048,-20.89433 30.66588,-43.67566 47.26826,-67.32147 8.90661,3.56264 18.06118,7.22446 27.16849,10.86739 a 3.220155,3.220155 0.14998084 0 0 4.192,-4.17011 c -6.5221,-16.5561 -13.00692,-33.01756 -19.19784,-48.73297 a 3.2208769,3.2197334 15.882256 0 0 -0.41605,-0.74663 C 553.19945,384.52587 523.62385,344.92464 497.29355,309.66882 a 3.220155,3.220155 53.254758 0 0 -4.50614,-0.65375 C 406.55359,373.378 335.20209,426.6331 288.99498,461.12101 Z m 4.60543,0.79439 c 45.74553,-34.1434 116.13558,-86.68091 201.21259,-150.18041 24.33148,32.57944 53.8167,72.05965 84.94436,113.73906 5.16687,13.11588 10.70919,27.18485 16.30565,41.39125 -7.61293,-3.04517 -15.20665,-6.08265 -22.60899,-9.04359 a 3.2201495,3.2201693 28.437616 0 0 -3.83135,1.13945 c -15.77581,22.46857 -31.02483,44.18688 -45.13501,64.2832 -5.37341,-15.29356 -11.15209,-31.74058 -17.12229,-48.73267 a 3.2201603,3.2201501 58.382193 0 0 -5.27,-1.25377 c -12.17626,11.70794 -24.75082,23.79886 -37.27032,35.83684 -14.02729,-1.9348 -27.95834,-3.85632 -41.2794,-5.6937 a 3.2200676,3.2203584 41.08926 0 0 -1.31028,0.0896 c -29.27734,8.2182 -57.0556,16.01561 -81.92302,22.99594 -19.41442,-29.1216 -35.47664,-53.21493 -45.95871,-68.93803 z"
       id="path37"
       inkscape:path-effect="#path-effect37"
       inkscape:original-d="m 290.92108,463.70162 47.25622,70.88433 84.17513,-23.62811 42.82595,5.90702 38.39567,-36.91891 19.19784,54.64 48.73297,-69.40757 29.53514,11.81405 -19.19784,-48.73297 -87.12865,-116.66378 z"
       inkscape:linked-fill="path38" />
    <path
       style="opacity:1;fill:#dbe2e3;fill-opacity:1;fill-rule:nonzero;stroke:none;stroke-width:6.44031;paint-order:stroke fill markers"
       d="m 933.28283,283.43102 c 17.8713,9.44145 44.6458,23.58648 76.99697,40.67765 7.0356,28.14235 14.9174,59.6696 23.2794,93.11771 a 3.220173,3.2201537 60.885433 0 0 5.3687,1.52786 c 32.9897,-32.07329 67.6403,-65.7614 102.842,-99.98529 6.2913,16.17747 12.651,32.53099 18.9132,48.63386 a 3.2201552,3.2201547 49.856633 0 0 5.7625,0.48963 c 15.8323,-26.38716 31.4002,-52.33378 46.2213,-77.03547 20.8914,28.90794 41.1732,56.9722 60.641,83.91028 20.3549,28.1655 41.5995,57.56214 63.5006,87.86703 a 3.220155,3.220155 29.035365 0 0 5.8225,-1.6657 c 3.1723,-46.2256 6.5139,-94.91663 9.9176,-144.51336 19.9697,15.88499 40.2099,31.98518 60.1798,47.87029 a 3.2201551,3.2201549 4.425397 0 0 4.8031,-4.11311 c -18.705,-32.86013 -37.1279,-65.22466 -54.64,-95.98919 a 3.2210824,3.2196152 7.6876509 0 0 -0.5215,-0.68402 c -44.6274,-44.62731 -86.6494,-86.64934 -124.0476,-124.04753 a 3.220155,3.220155 55.130243 0 0 -3.6246,-0.64762 C 1107.983,197.2322 1003.126,245.54868 933.43942,277.65917 Z m 2.85181,0.0774 c 69.31266,-31.93819 173.41936,-79.90891 299.22046,-137.87608 35.7258,35.72581 77.6409,77.64095 122.1541,122.15405 14.7154,25.85148 30.3075,53.24307 46.1721,81.11325 -17.309,-13.76857 -34.7318,-27.62762 -51.921,-41.30079 a 3.2201553,3.2201545 21.213286 0 0 -5.2172,2.29963 c -3.3311,48.539 -6.6071,96.27422 -9.7279,141.74992 -20.0617,-27.75971 -39.5515,-54.72813 -58.2874,-80.65346 -20.3549,-28.1655 -41.5995,-57.56214 -63.5006,-87.86703 a 3.220155,3.220155 42.554255 0 0 -5.3712,0.22941 c -14.5195,24.19916 -29.7908,49.65136 -45.3522,75.58698 -6.0761,-15.62438 -12.2238,-31.4326 -18.2929,-47.03897 a 3.2201551,3.2201548 57.278213 0 0 -5.2459,-1.14171 c -34.9735,34.002 -69.4401,67.51125 -102.3148,99.47273 -7.9955,-31.98191 -15.5279,-62.11155 -22.2711,-89.08435 a 3.220155,3.220155 6.905677 0 0 -1.6198,-2.06624 C 981.63833,301.69354 954.39607,287.3014 936.29123,277.73657 Z"
       id="path39"
       inkscape:path-effect="#path-effect39"
       inkscape:original-d="m 934.78703,280.58378 78.26807,41.34919 23.6281,94.51244 106.3265,-103.37298 20.6746,53.16325 48.733,-81.22163 127.0011,175.73406 10.3373,-150.62919 64.9773,51.68649 -54.64,-95.98919 -124.0476,-124.04757 z"
       inkscape:linked-fill="path40" />
  </g>
  <g
     inkscape:groupmode="layer"
     id="layer3"
     inkscape:label="night"
     style="display:none"
     sodipodi:insensitive="true">
    <ellipse
       style="opacity:1;fill:#000000;fill-opacity:1;stroke-width:3.603;paint-order:stroke fill markers"
       id="path32"
       cx="1128.2421"
       cy="255.47891"
       rx="509.74359"
       ry="497.35107"
       sodipodi:insensitive="true" />
    <circle
       style="display:inline;opacity:0.244076;fill:#ffd42a;fill-opacity:1;stroke-width:7.31569;paint-order:stroke fill markers"
       id="path29-9-9-4"
       cx="1095.546"
       cy="237.65297"
       r="172.78053"
       sodipodi:insensitive="true" />
    <path
       d="m 1222.7244,323.26626 a 152.10594,152.10594 0 0 1 -15.8398,1.2461 152.10594,152.10594 0 0 1 -152.1055,-152.10547 152.10594,152.10594 0 0 1 27.7148,-87.22852 152.10594,152.10594 0 0 0 -136.26752,150.85938 152.10594,152.10594 0 0 0 152.10742,152.10547 152.10594,152.10594 0 0 0 124.3906,-64.87696 z"
       style="display:inline;fill:#ffcc00;stroke-width:6.44031;paint-order:stroke fill markers"
       id="path31"
       sodipodi:insensitive="true" />
    <path
       d="m 775.83304,421.11662 a 37.135953,37.135953 0 0 1 -12.51601,-8.8261 25.679117,36.345828 0 0 1 -7.87619,9.8617 37.135953,37.135953 0 0 1 9.86065,13.60909 27.654433,33.975446 0 0 1 10.53155,-14.64469 z"
       style="opacity:1;fill:#ffdd55;fill-opacity:1;stroke-width:2.83476;paint-order:stroke fill markers"
       id="path34" />
    <path
       d="m 1188.8863,625.97947 a 66.718267,74.520818 0 0 1 -22.4864,-17.71136 46.134973,72.935272 0 0 1 -14.1501,19.7895 66.718267,74.520818 0 0 1 17.7155,27.3094 49.683816,68.17862 0 0 1 18.921,-29.38754 z"
       style="fill:#ffdd55;fill-opacity:1;stroke-width:5.38249;paint-order:stroke fill markers"
       id="path34-9" />
    <path
       d="m 931.51112,383.52764 a 23.689447,23.116629 0 0 1 -7.98411,-5.49413 16.381001,22.624787 0 0 1 -5.02431,6.13877 23.689447,23.116629 0 0 1 6.29022,8.47148 17.641077,21.149256 0 0 1 6.7182,-9.11612 z"
       style="fill:#ffdd55;fill-opacity:1;stroke-width:1.78633;paint-order:stroke fill markers"
       id="path34-2" />
    <path
       d="m 889.96409,129.68433 a 64.028966,74.520818 0 0 1 -21.57982,-17.71135 44.27535,72.935272 0 0 1 -13.57994,19.7895 64.028966,74.520818 0 0 1 17.0015,27.30939 47.681145,68.17862 0 0 1 18.15826,-29.38754 z"
       style="fill:#ffdd55;fill-opacity:1;stroke-width:5.27289;paint-order:stroke fill markers"
       id="path34-0" />
    <path
       d="m 930.63868,539.00641 a 58.650363,60.501492 0 0 1 -19.76705,-14.37938 40.556103,59.214229 0 0 1 -12.4392,16.06657 58.650363,60.501492 0 0 1 15.57334,22.17179 43.675802,55.352428 0 0 1 16.63291,-23.85898 z"
       style="fill:#ffdd55;fill-opacity:1;stroke-width:4.54716;paint-order:stroke fill markers"
       id="path34-93" />
    <path
       d="m 715.92949,104.42714 a 26.378744,30.126292 0 0 1 -8.89048,-7.160113 18.240621,29.485308 0 0 1 -5.59469,8.000243 26.378744,30.126292 0 0 1 7.00431,11.04028 19.643746,27.562352 0 0 1 7.48086,-11.88041 z"
       style="fill:#ffdd55;fill-opacity:1;stroke-width:2.1519;paint-order:stroke fill markers"
       id="path34-7" />
  </g>
  <g
     inkscape:groupmode="layer"
     id="layer2"
     inkscape:label="sunset"
     style="display:none"
     sodipodi:insensitive="true">
    <circle
       style="display:inline;opacity:0.419431;fill:#d45500;fill-opacity:1;stroke-width:9.19151;paint-order:stroke fill markers"
       id="path29-9-9"
       cx="1197.4011"
       cy="512.28326"
       r="217.08324"
       sodipodi:insensitive="true" />
    <circle
       style="display:inline;fill:#ff6600;fill-opacity:1;stroke-width:6.44031;paint-order:stroke fill markers"
       id="path29-5"
       cx="1194.2811"
       cy="512.1449"
       r="152.10594" />
    <ellipse
       style="opacity:1;fill:#214478;fill-opacity:1;stroke-width:6.44031;paint-order:stroke fill markers"
       id="path30"
       cx="958.41516"
       cy="726.56433"
       rx="762.00647"
       ry="87.128647" />
    <ellipse
       style="display:inline;opacity:0.419431;fill:#d45500;fill-opacity:1;stroke-width:4.41637;paint-order:stroke fill markers"
       id="path29-9-9-7"
       cx="1183.1329"
       cy="665.04535"
       rx="226.68216"
       ry="47.994583" />
  </g>
  <g
     inkscape:label="Layer 1"
     inkscape:groupmode="layer"
     id="layer1"
     style="display:none;fill:#000000;fill-opacity:1"
     sodipodi:insensitive="true">
    <circle
       style="fill:#ffcc00;fill-opacity:1;stroke-width:6.44031;paint-order:stroke fill markers"
       id="path29"
       cx="1137.1028"
       cy="314.54919"
       r="152.10594" />
    <path
       inkscape:original-d="M 0,0"
       inkscape:path-effect="#path-effect10"
       d="m 220.03676,843.22811 432.68973,-293.8746 175.73405,26.58163 256.95566,-190.50163 h 135.8616 l 189.0249,-160.96648 -7.3838,575.93513 z"
       id="path10"
       style="fill:#000000"
       transform="translate(-35.442162,-11.814054)" />
    <path
       style="fill:#002b11;fill-opacity:1;fill-rule:nonzero;stroke:none;stroke-width:6.44031;paint-order:stroke fill markers"
       d="m 220.03676,843.22811 432.68973,-293.8746 175.73405,26.58163 256.95566,-190.50163 h 135.8616 l 189.0249,-160.96648 -7.3838,575.93513 z"
       id="path9"
       inkscape:path-effect="#path-effect9"
       inkscape:original-d="m 220.03676,843.22811 432.68973,-293.8746 175.73405,26.58163 256.95566,-190.50163 h 135.8616 l 189.0249,-160.96648 -7.3838,575.93513 z"
       inkscape:linked-fill="path10"
       transform="translate(-35.442162,-11.814054)" />
    <path
       inkscape:original-d="M 0,0"
       inkscape:path-effect="#path-effect12"
       d="M 642.38919,581.84216 305.68865,809.2627 h 206.74594 z"
       id="path12"
       style="fill:#002b11"
       transform="translate(-35.442162,-11.814054)" />
    <path
       style="fill:#005a23;fill-opacity:1;fill-rule:nonzero;stroke:none;stroke-width:6.44031;paint-order:stroke fill markers"
       d="M 631.82839,566.20669 C 559.25212,615.2275 434.52947,699.46999 295.12785,793.62723 l -51.08296,34.50339 h 61.64376 c 67.07068,10e-6 139.67526,10e-6 206.74594,0 h 10.94948 l 5.43247,-9.50681 c 53.80413,-94.15723 101.9427,-178.39972 129.9546,-227.42054 z m -5.82115,6.27436 c -27.06567,47.36492 -72.92124,127.61217 -124.52213,217.91373 -35.97267,0 -85.60327,0 -134.1527,-10e-6 C 485.76538,710.40057 589.36855,640.423 652.94999,597.47763 Z"
       id="path11"
       inkscape:path-effect="#path-effect11"
       inkscape:original-d="M 642.38919,581.84216 305.68865,809.2627 h 206.74594 z"
       inkscape:linked-fill="path12"
       transform="translate(-35.442162,-11.814054)" />
    <path
       inkscape:original-d="M 0,0"
       inkscape:path-effect="#path-effect18"
       d="m 505.05081,806.30919 -163.92,-10.3373 268.76973,-181.64108 z"
       id="path18"
       style="fill:#005a23"
       transform="translate(-35.442162,-11.814054)" />
    <path
       style="fill:#005a23;fill-opacity:1;fill-rule:nonzero;stroke:none;stroke-width:6.44031;paint-order:stroke fill markers"
       d="m 505.05081,806.30919 -163.92,-10.3373 268.76973,-181.64108 z"
       id="path17"
       inkscape:path-effect="#path-effect17"
       inkscape:original-d="m 505.05081,806.30919 -163.92,-10.3373 268.76973,-181.64108 z"
       inkscape:linked-fill="path18"
       transform="translate(-35.442162,-11.814054)" />
    <path
       inkscape:original-d="M 0,0"
       inkscape:path-effect="#path-effect20"
       d="M 759.05297,887.53081 849.13514,595.13297 1086.893,389.86378 855.04216,803.35568 Z"
       id="path20"
       style="fill:#005a23"
       transform="translate(-35.442162,-11.814054)" />
    <path
       style="fill:#005a23;fill-opacity:1;fill-rule:nonzero;stroke:none;stroke-width:6.44031;paint-order:stroke fill markers"
       d="M 759.05297,887.53081 849.13514,595.13297 1086.893,389.86378 855.04216,803.35568 Z"
       id="path19"
       inkscape:path-effect="#path-effect19"
       inkscape:original-d="M 759.05297,887.53081 849.13514,595.13297 1086.893,389.86378 855.04216,803.35568 Z"
       inkscape:linked-fill="path20"
       transform="translate(-35.442162,-11.814054)" />
    <path
       inkscape:original-d="M 0,0"
       inkscape:path-effect="#path-effect22"
       d="M 1249.3362,400.20108 1410.3027,222.99027 1281.8249,983.52 939.2173,999.76432 1156.3005,558.21405 Z"
       id="path22"
       style="fill:#005a23"
       transform="translate(-35.442162,-11.814054)" />
    <path
       style="fill:#005a23;fill-opacity:1;fill-rule:nonzero;stroke:none;stroke-width:6.44031;paint-order:stroke fill markers"
       d="M 1249.3362,400.20108 1410.3027,222.99027 1281.8249,983.52 939.2173,999.76432 1156.3005,558.21405 Z"
       id="path21"
       inkscape:path-effect="#path-effect21"
       inkscape:original-d="M 1249.3362,400.20108 1410.3027,222.99027 1281.8249,983.52 939.2173,999.76432 1156.3005,558.21405 Z"
       inkscape:linked-fill="path22"
       transform="translate(-35.442162,-11.814054)" />
    <path
       inkscape:original-d="M 0,0"
       inkscape:path-effect="#path-effect24"
       d="m 549.35351,828.46054 128.47784,-251.04865 56.11676,283.5373 z"
       id="path24"
       style="fill:#005a23"
       transform="translate(-35.442162,-11.814054)" />
    <path
       style="fill:#003715;fill-opacity:1;fill-rule:nonzero;stroke:none;stroke-width:6.44031;paint-order:stroke fill markers"
       d="m 549.35351,828.46054 128.47784,-251.04865 56.11676,283.5373 z"
       id="path23"
       inkscape:path-effect="#path-effect23"
       inkscape:original-d="m 549.35351,828.46054 128.47784,-251.04865 56.11676,283.5373 z"
       inkscape:linked-fill="path24"
       transform="translate(-35.442162,-11.814054)" />
    <path
       inkscape:original-d="M 0,0"
       inkscape:path-effect="#path-effect26"
       d="m 887.53081,835.84432 1.47676,-19.19783 208.22273,-407.58487 -48.733,318.97946 -81.22162,128.47784 z"
       id="path26"
       style="fill:#005a23"
       transform="translate(-35.442162,-11.814054)" />
    <path
       style="fill:#003715;fill-opacity:1;fill-rule:nonzero;stroke:none;stroke-width:6.44031;paint-order:stroke fill markers"
       d="m 887.53081,835.84432 1.47676,-19.19783 208.22273,-407.58487 -48.733,318.97946 -81.22162,128.47784 z"
       id="path25"
       inkscape:path-effect="#path-effect25"
       inkscape:original-d="m 887.53081,835.84432 1.47676,-19.19783 208.22273,-407.58487 -48.733,318.97946 -81.22162,128.47784 z"
       inkscape:linked-fill="path26"
       transform="translate(-35.442162,-11.814054)" />
    <path
       inkscape:original-d="M 0,0"
       inkscape:path-effect="#path-effect28"
       d="m 1129.7189,431.21297 -51.6865,228.8973 152.106,-256.95568 z"
       id="path28"
       style="fill:#003715"
       transform="translate(-35.442162,-11.814054)" />
    <path
       style="fill:#005a23;fill-opacity:1;fill-rule:nonzero;stroke:none;stroke-width:6.44031;paint-order:stroke fill markers"
       d="m 1129.7189,431.21297 -51.6865,228.8973 152.106,-256.95568 z"
       id="path27"
       inkscape:path-effect="#path-effect27"
       inkscape:original-d="m 1129.7189,431.21297 -51.6865,228.8973 152.106,-256.95568 z"
       inkscape:linked-fill="path28"
       transform="translate(-35.442162,-11.814054)" />
    <circle
       style="opacity:0.419431;fill:#ffcc00;fill-opacity:1;stroke-width:9.19151;paint-order:stroke fill markers"
       id="path29-9"
       cx="1140.2228"
       cy="314.68756"
       r="217.08324" />
  </g>
</svg>
