<?xml version="1.0" encoding="UTF-8" standalone="no"?>
<!-- Created with Inkscape (http://www.inkscape.org/) -->

<svg
   width="178.21822mm"
   height="178.21823mm"
   viewBox="0 0 178.21822 178.21823"
   version="1.1"
   id="svg1"
   inkscape:version="1.3.2 (091e20e, 2023-11-25, custom)"
   sodipodi:docname="Weather_Icons_Images.svg"
   inkscape:export-filename="pressure.svg"
   inkscape:export-xdpi="12.095238"
   inkscape:export-ydpi="12.095238"
   xmlns:inkscape="http://www.inkscape.org/namespaces/inkscape"
   xmlns:sodipodi="http://sodipodi.sourceforge.net/DTD/sodipodi-0.dtd"
   xmlns="http://www.w3.org/2000/svg"
   xmlns:svg="http://www.w3.org/2000/svg">
  <sodipodi:namedview
     id="namedview1"
     pagecolor="#ffffff"
     bordercolor="#000000"
     borderopacity="0.25"
     inkscape:showpageshadow="2"
     inkscape:pageopacity="0.0"
     inkscape:pagecheckerboard="0"
     inkscape:deskcolor="#d1d1d1"
     inkscape:document-units="mm"
     inkscape:zoom="0.81513047"
     inkscape:cx="270.50884"
     inkscape:cy="667.99122"
     inkscape:window-width="1920"
     inkscape:window-height="1171"
     inkscape:window-x="-9"
     inkscape:window-y="-9"
     inkscape:window-maximized="1"
     inkscape:current-layer="layer1" />
  <defs
     id="defs1">
    <inkscape:path-effect
       effect="skeletal"
       id="path-effect14"
       is_visible="true"
       lpeversion="1"
       pattern="M 0,4.9921382 C 0,2.2364779 2.2364779,0 4.9921382,0 c 2.7556604,0 4.9921383,2.2364779 4.9921383,4.9921382 0,2.7556604 -2.2364779,4.9921383 -4.9921383,4.9921383 C 2.2364779,9.9842765 0,7.7477986 0,4.9921382 Z"
       copytype="single_stretched"
       prop_scale="1"
       scale_y_rel="false"
       spacing="0"
       normal_offset="0"
       tang_offset="0"
       prop_units="false"
       vertical_pattern="false"
       hide_knot="false"
       fuse_tolerance="0" />
    <inkscape:path-effect
       effect="spiro"
       id="path-effect13"
       is_visible="true"
       lpeversion="1" />
    <inkscape:path-effect
       effect="spiro"
       id="path-effect13-3"
       is_visible="true"
       lpeversion="1" />
    <inkscape:path-effect
       effect="skeletal"
       id="path-effect14-8"
       is_visible="true"
       lpeversion="1"
       pattern="M 0,4.9921382 C 0,2.2364779 2.2364779,0 4.9921382,0 c 2.7556604,0 4.9921383,2.2364779 4.9921383,4.9921382 0,2.7556604 -2.2364779,4.9921383 -4.9921383,4.9921383 C 2.2364779,9.9842765 0,7.7477986 0,4.9921382 Z"
       copytype="single_stretched"
       prop_scale="1"
       scale_y_rel="false"
       spacing="0"
       normal_offset="0"
       tang_offset="0"
       prop_units="false"
       vertical_pattern="false"
       hide_knot="false"
       fuse_tolerance="0" />
  </defs>
  <g
     inkscape:groupmode="layer"
     id="layer4"
     inkscape:label="circle-bg"
     style="display:inline"
     transform="translate(-16.717888,-50.486662)">
    <circle
       style="display:inline;fill:none;fill-opacity:1;stroke:none;stroke-width:5.42236;stroke-dasharray:none;stroke-opacity:1;paint-order:stroke fill markers"
       id="path4-6"
       cx="105.827"
       cy="139.59578"
       r="89.109116"
       inkscape:export-filename="pressure.svg"
       inkscape:export-xdpi="12.095238"
       inkscape:export-ydpi="12.095238" />
  </g>
  <g
     inkscape:groupmode="layer"
     id="layer3"
     inkscape:label="wind"
     style="display:inline"
     transform="translate(-16.717888,-50.486662)">
    <path
       style="fill:#a9a9a9;fill-opacity:1;stroke:none;stroke-width:1.704;stroke-dasharray:none;stroke-opacity:1;paint-order:stroke fill markers"
       d="m 43.819672,133.40656 c 0.302762,0.14696 -0.529632,1.98788 -0.129696,5.26495 0.169286,1.39091 0.618718,3.03163 1.544331,4.70725 1.332517,2.43957 3.692322,4.82215 7.184724,6.58955 5.558858,2.867 11.311799,2.81564 20.436727,3.16665 9.490973,0.26214 20.245464,1.2208 31.993282,1.48285 9.49793,0.19863 20.30506,-0.10244 30.6041,-2.64231 8.4113,-2.07172 17.03754,-5.6776 24.27291,-11.42118 6.66222,-5.29013 12.39277,-12.52778 15.14309,-20.95217 3.50279,-10.47634 2.27617,-23.25963 -4.00839,-33.348059 -3.86374,-6.131069 -9.56046,-11.443539 -16.30962,-13.794656 -3.28797,-1.173752 -6.82717,-1.726054 -10.26565,-1.459656 -3.38345,0.259781 -6.74566,1.271634 -9.59056,3.029988 -4.65087,2.837104 -8.22788,7.988213 -9.04557,13.433561 -0.24666,1.543607 -0.27642,3.145124 -0.10313,4.7391 0.42882,3.944455 2.0923,7.780603 4.69528,10.544462 1.84653,1.94725 4.06529,3.47908 6.38475,4.13334 2.3041,0.65484 4.84022,0.64441 6.78646,-0.23216 1.92452,-0.84223 3.64937,-2.51511 4.17402,-4.29027 0.30081,-0.90343 0.40167,-1.89014 0.25558,-2.764703 -0.14131,-0.874927 -0.50635,-1.742178 -1.02864,-2.376907 -0.61209,-0.978284 -2.30713,-1.862385 -4.33226,-3.288631 -2.21897,-1.286638 -4.7139,-3.397088 -6.58864,-6.734889 -1.3219,-2.753136 -1.60215,-5.761391 -0.89494,-8.576472 0,0 1e-5,-3.3e-5 1e-5,-3.3e-5 0.72133,-2.814488 2.26319,-5.234216 4.36113,-7.017487 2.10838,-1.782374 4.5872,-2.900939 7.16024,-3.330489 2.58465,-0.428211 5.14993,-0.235319 7.51296,0.476645 4.7645,1.509451 8.50924,4.608676 10.97731,8.269681 2.50498,3.678061 3.99367,7.632684 4.93934,11.379684 1.59256,5.991135 2.2113,12.200651 1.58157,18.318211 -0.65483,6.38607 -2.80516,12.52031 -6.36491,17.71647 -4.21467,5.99163 -9.89774,10.28131 -15.57546,13.32755 -5.93589,3.2158 -12.23436,5.51001 -17.71548,7.58153 -8.89504,3.44638 -17.05974,6.53341 -26.20325,6.93975 -13.99497,0.4111 -25.723092,-6.12252 -33.174922,-12.40726 0,0 -8e-6,-1e-5 -8e-6,-1e-5 -3.651011,-3.0479 -6.500362,-5.95447 -9.412267,-7.93096 -1.745251,-1.18729 -3.414656,-2.06893 -5.087975,-2.62915 -1.992312,-0.66495 -3.853078,-0.87673 -5.511294,-0.71155 -1.864461,0.17848 -3.437495,0.80038 -4.623618,1.49477 0,0 -3e-6,0 -3e-6,0 -2.816947,1.64711 -3.739569,3.45958 -4.041531,3.31301 -0.301963,-0.14657 -0.06315,-2.37632 2.892282,-4.90259 1e-6,0 4e-6,0 4e-6,0 1.252769,-1.07006 3.025996,-2.11201 5.321248,-2.62407 2.037034,-0.44817 4.393431,-0.47165 6.889478,0.12004 2.088736,0.49305 4.184552,1.35019 6.27252,2.55185 3.955083,2.28067 6.332125,4.53849 10.321532,7.47939 -10e-7,0 8e-6,1e-5 8e-6,1e-5 7.231525,5.26795 18.145219,10.65193 29.795566,9.66486 7.72876,-0.51461 14.85261,-3.69662 23.78364,-7.34222 5.47661,-2.28792 11.4401,-4.63196 16.55291,-7.61811 4.84916,-2.86303 9.51242,-6.46058 12.47746,-11.0728 2.61095,-3.91775 4.14038,-8.74275 4.60307,-13.80931 0.44332,-4.8792 -0.19228,-9.990876 -1.59625,-15.074041 -0.91942,-3.145955 -2.01568,-6.123055 -3.71737,-8.406557 -1.6552,-2.182385 -3.7756,-4.037171 -6.02021,-4.5674 -1.09403,-0.294019 -2.23289,-0.38303 -3.22715,-0.180447 -0.97386,0.195608 -1.91614,0.613188 -2.5566,1.206997 -0.62648,0.57178 -1.13139,1.34496 -1.26976,2.060004 0,0 0,9e-6 0,9e-6 -0.14506,0.68391 -0.0822,1.50057 0.21108,2.000401 0.18394,0.809634 1.5602,1.619307 3.25484,2.892962 1.83411,1.098615 4.27414,2.626764 6.59804,5.260566 1.64654,2.034037 2.71608,4.433445 3.12875,6.975676 0.40433,2.52062 0.19128,5.07086 -0.60249,7.45119 -1.64279,4.72707 -5.18068,8.41788 -9.64607,10.29088 -4.36907,1.80694 -9.14155,1.96909 -13.48935,0.64969 -4.2642,-1.29972 -7.98053,-3.74363 -10.85803,-6.87847 -4.13589,-4.48579 -6.68742,-10.232744 -7.32743,-16.268697 -0.25881,-2.440812 -0.20363,-4.915091 0.17761,-7.356628 1.38616,-8.542187 6.5516,-15.98949 13.73247,-20.365742 4.32594,-2.61344 9.18149,-4.076776 14.06229,-4.405103 4.9442,-0.330131 9.83401,0.441793 14.32431,2.099857 9.18682,3.450682 16.44641,10.17092 21.13938,17.995674 7.74031,12.785073 8.96286,28.255759 4.43095,41.307679 -3.66139,10.35123 -10.53438,18.79007 -18.52796,24.79231 -8.61081,6.46654 -18.38413,10.30649 -27.74784,12.29664 -11.46263,2.43275 -22.85399,2.40562 -32.63864,1.79683 -12.077076,-0.73528 -22.714778,-2.17989 -32.003328,-2.95629 -8.957394,-0.64864 -15.789056,-1.43384 -22.021167,-5.12883 -4.00872,-2.40969 -6.541483,-5.68678 -7.807424,-8.79198 -0.87207,-2.16317 -1.097127,-4.19173 -1.007934,-5.82767 0.21205,-3.88033 1.792803,-5.46352 2.095565,-5.31656 z"
       id="path13"
       inkscape:path-effect="#path-effect13;#path-effect14"
       inkscape:original-d="m 43.819672,133.40656 c -2.813116,2.05573 19.259015,14.93114 28.888523,22.39672 9.629508,7.46557 42.413115,0 63.619675,0 21.20656,0 28.45573,-23.2623 42.8459,-34.73115 14.39016,-11.46885 -2.92131,-24.777048 -4.21967,-37.327868 -1.29836,-12.55082 -28.23935,-9.196721 -42.84591,-13.957377 -14.60655,-4.760655 -3.78688,24.127868 -5.51803,36.354095 -1.73115,12.22623 16.01312,-8.114751 24.01968,-12.009833 8.00655,-3.895082 -6.9246,-5.95082 -10.38689,-9.088524 -3.4623,-3.137707 16.87869,3.029508 25.31803,4.544261 8.43934,1.514755 -2.59672,21.639346 -3.89508,32.459016 -1.29836,10.81967 -20.77377,13.41639 -31.16066,19.8 -10.38688,6.38361 -16.66229,4.54426 -24.99344,7.14098 -8.331144,2.59673 -20.990163,-7.35737 -31.485244,-11.03606 -10.495082,-3.67869 -14.49836,-7.14099 -21.747541,-10.71148 -7.249178,-3.57049 -5.62623,4.11148 -8.439343,6.16722 z"
       transform="matrix(0.33293285,0,0,0.33293285,56.860648,109.28435)"
       inkscape:export-filename="wind.svg"
       inkscape:export-xdpi="12.095238"
       inkscape:export-ydpi="12.095238" />
    <path
       style="fill:#9b9b9b;fill-opacity:1;stroke:none;stroke-width:1.704;stroke-dasharray:none;stroke-opacity:1;paint-order:stroke fill markers"
       d="m 43.819672,133.40656 c 0.302762,0.14696 -0.529632,1.98788 -0.129696,5.26495 0.169286,1.39091 0.618718,3.03163 1.544331,4.70725 1.332517,2.43957 3.692322,4.82215 7.184724,6.58955 5.558858,2.867 11.311799,2.81564 20.436727,3.16665 9.490973,0.26214 20.245464,1.2208 31.993282,1.48285 9.49793,0.19863 20.30506,-0.10244 30.6041,-2.64231 8.4113,-2.07172 17.03754,-5.6776 24.27291,-11.42118 6.66222,-5.29013 12.39277,-12.52778 15.14309,-20.95217 3.50279,-10.47634 2.27617,-23.25963 -4.00839,-33.348059 -3.86374,-6.131069 -9.56046,-11.443539 -16.30962,-13.794656 -3.28797,-1.173752 -6.82717,-1.726054 -10.26565,-1.459656 -3.38345,0.259781 -6.74566,1.271634 -9.59056,3.029988 -4.65087,2.837104 -8.22788,7.988213 -9.04557,13.433561 -0.24666,1.543607 -0.27642,3.145124 -0.10313,4.7391 0.42882,3.944455 2.0923,7.780603 4.69528,10.544462 1.84653,1.94725 4.06529,3.47908 6.38475,4.13334 2.3041,0.65484 4.84022,0.64441 6.78646,-0.23216 1.92452,-0.84223 3.64937,-2.51511 4.17402,-4.29027 0.30081,-0.90343 0.40167,-1.89014 0.25558,-2.764703 -0.14131,-0.874927 -0.50635,-1.742178 -1.02864,-2.376907 -0.61209,-0.978284 -2.30713,-1.862385 -4.33226,-3.288631 -2.21897,-1.286638 -4.7139,-3.397088 -6.58864,-6.734889 -1.3219,-2.753136 -1.60215,-5.761391 -0.89494,-8.576472 0,0 1e-5,-3.3e-5 1e-5,-3.3e-5 0.72133,-2.814488 2.26319,-5.234216 4.36113,-7.017487 2.10838,-1.782374 4.5872,-2.900939 7.16024,-3.330489 2.58465,-0.428211 5.14993,-0.235319 7.51296,0.476645 4.7645,1.509451 8.50924,4.608676 10.97731,8.269681 2.50498,3.678061 3.99367,7.632684 4.93934,11.379684 1.59256,5.991135 2.2113,12.200651 1.58157,18.318211 -0.65483,6.38607 -2.80516,12.52031 -6.36491,17.71647 -4.21467,5.99163 -9.89774,10.28131 -15.57546,13.32755 -5.93589,3.2158 -12.23436,5.51001 -17.71548,7.58153 -8.89504,3.44638 -17.05974,6.53341 -26.20325,6.93975 -13.99497,0.4111 -25.723092,-6.12252 -33.174922,-12.40726 0,0 -8e-6,-1e-5 -8e-6,-1e-5 -3.651011,-3.0479 -6.500362,-5.95447 -9.412267,-7.93096 -1.745251,-1.18729 -3.414656,-2.06893 -5.087975,-2.62915 -1.992312,-0.66495 -3.853078,-0.87673 -5.511294,-0.71155 -1.864461,0.17848 -3.437495,0.80038 -4.623618,1.49477 0,0 -3e-6,0 -3e-6,0 -2.816947,1.64711 -3.739569,3.45958 -4.041531,3.31301 -0.301963,-0.14657 -0.06315,-2.37632 2.892282,-4.90259 1e-6,0 4e-6,0 4e-6,0 1.252769,-1.07006 3.025996,-2.11201 5.321248,-2.62407 2.037034,-0.44817 4.393431,-0.47165 6.889478,0.12004 2.088736,0.49305 4.184552,1.35019 6.27252,2.55185 3.955083,2.28067 6.332125,4.53849 10.321532,7.47939 -10e-7,0 8e-6,1e-5 8e-6,1e-5 7.231525,5.26795 18.145219,10.65193 29.795566,9.66486 7.72876,-0.51461 14.85261,-3.69662 23.78364,-7.34222 5.47661,-2.28792 11.4401,-4.63196 16.55291,-7.61811 4.84916,-2.86303 9.51242,-6.46058 12.47746,-11.0728 2.61095,-3.91775 4.14038,-8.74275 4.60307,-13.80931 0.44332,-4.8792 -0.19228,-9.990876 -1.59625,-15.074041 -0.91942,-3.145955 -2.01568,-6.123055 -3.71737,-8.406557 -1.6552,-2.182385 -3.7756,-4.037171 -6.02021,-4.5674 -1.09403,-0.294019 -2.23289,-0.38303 -3.22715,-0.180447 -0.97386,0.195608 -1.91614,0.613188 -2.5566,1.206997 -0.62648,0.57178 -1.13139,1.34496 -1.26976,2.060004 0,0 0,9e-6 0,9e-6 -0.14506,0.68391 -0.0822,1.50057 0.21108,2.000401 0.18394,0.809634 1.5602,1.619307 3.25484,2.892962 1.83411,1.098615 4.27414,2.626764 6.59804,5.260566 1.64654,2.034037 2.71608,4.433445 3.12875,6.975676 0.40433,2.52062 0.19128,5.07086 -0.60249,7.45119 -1.64279,4.72707 -5.18068,8.41788 -9.64607,10.29088 -4.36907,1.80694 -9.14155,1.96909 -13.48935,0.64969 -4.2642,-1.29972 -7.98053,-3.74363 -10.85803,-6.87847 -4.13589,-4.48579 -6.68742,-10.232744 -7.32743,-16.268697 -0.25881,-2.440812 -0.20363,-4.915091 0.17761,-7.356628 1.38616,-8.542187 6.5516,-15.98949 13.73247,-20.365742 4.32594,-2.61344 9.18149,-4.076776 14.06229,-4.405103 4.9442,-0.330131 9.83401,0.441793 14.32431,2.099857 9.18682,3.450682 16.44641,10.17092 21.13938,17.995674 7.74031,12.785073 8.96286,28.255759 4.43095,41.307679 -3.66139,10.35123 -10.53438,18.79007 -18.52796,24.79231 -8.61081,6.46654 -18.38413,10.30649 -27.74784,12.29664 -11.46263,2.43275 -22.85399,2.40562 -32.63864,1.79683 -12.077076,-0.73528 -22.714778,-2.17989 -32.003328,-2.95629 -8.957394,-0.64864 -15.789056,-1.43384 -22.021167,-5.12883 -4.00872,-2.40969 -6.541483,-5.68678 -7.807424,-8.79198 -0.87207,-2.16317 -1.097127,-4.19173 -1.007934,-5.82767 0.21205,-3.88033 1.792803,-5.46352 2.095565,-5.31656 z"
       id="path13-1"
       inkscape:path-effect="#path-effect13-3;#path-effect14-8"
       inkscape:original-d="m 43.819672,133.40656 c -2.813116,2.05573 19.259015,14.93114 28.888523,22.39672 9.629508,7.46557 42.413115,0 63.619675,0 21.20656,0 28.45573,-23.2623 42.8459,-34.73115 14.39016,-11.46885 -2.92131,-24.777048 -4.21967,-37.327868 -1.29836,-12.55082 -28.23935,-9.196721 -42.84591,-13.957377 -14.60655,-4.760655 -3.78688,24.127868 -5.51803,36.354095 -1.73115,12.22623 16.01312,-8.114751 24.01968,-12.009833 8.00655,-3.895082 -6.9246,-5.95082 -10.38689,-9.088524 -3.4623,-3.137707 16.87869,3.029508 25.31803,4.544261 8.43934,1.514755 -2.59672,21.639346 -3.89508,32.459016 -1.29836,10.81967 -20.77377,13.41639 -31.16066,19.8 -10.38688,6.38361 -16.66229,4.54426 -24.99344,7.14098 -8.331144,2.59673 -20.990163,-7.35737 -31.485244,-11.03606 -10.495082,-3.67869 -14.49836,-7.14099 -21.747541,-10.71148 -7.249178,-3.57049 -5.62623,4.11148 -8.439343,6.16722 z"
       transform="matrix(1.0781658,0,0,1.0781658,-15.403515,13.522041)" />
  </g>
</svg>
